<svg preserveAspectRatio="none" width="100%" height="100%" overflow="visible" style="display: block;" viewBox="0 0 15.25 15.75" fill="none" xmlns="http://www.w3.org/2000/svg">
<g id="Group">
<path id="Vector" d="M6.20833 14.9583C6.89869 14.9583 7.45833 14.3987 7.45833 13.7083C7.45833 13.018 6.89869 12.4583 6.20833 12.4583C5.51798 12.4583 4.95833 13.018 4.95833 13.7083C4.95833 14.3987 5.51798 14.9583 6.20833 14.9583Z" stroke="var(--stroke-0, #EF6E00)" stroke-width="1.58333" stroke-linecap="round" stroke-linejoin="round"/>
<path id="Vector_2" d="M12.4583 14.9583C13.1487 14.9583 13.7083 14.3987 13.7083 13.7083C13.7083 13.018 13.1487 12.4583 12.4583 12.4583C11.768 12.4583 11.2083 13.018 11.2083 13.7083C11.2083 14.3987 11.768 14.9583 12.4583 14.9583Z" stroke="var(--stroke-0, #EF6E00)" stroke-width="1.58333" stroke-linecap="round" stroke-linejoin="round"/>
<path id="Vector_3" d="M0.791667 0.791667H2.95833L4.79167 9.95833H12.875L14.4583 3.625H3.45833" stroke="var(--stroke-0, #EF6E00)" stroke-width="1.58333" stroke-linecap="round" stroke-linejoin="round"/>
</g>
</svg>
