<svg preserveAspectRatio="none" width="100%" height="100%" overflow="visible" style="display: block;" viewBox="0 0 15.5833 16.25" fill="none" xmlns="http://www.w3.org/2000/svg">
<g id="Group">
<path id="Vector" d="M3.125 10.375C4.36764 10.375 5.375 9.36764 5.375 8.125C5.375 6.88236 4.36764 5.875 3.125 5.875C1.88236 5.875 0.875 6.88236 0.875 8.125C0.875 9.36764 1.88236 10.375 3.125 10.375Z" stroke="var(--stroke-0, white)" stroke-width="1.75" stroke-linecap="round" stroke-linejoin="round"/>
<path id="Vector_2" d="M12.4583 5.375C13.7009 5.375 14.7083 4.36764 14.7083 3.125C14.7083 1.88236 13.7009 0.875 12.4583 0.875C11.2157 0.875 10.2083 1.88236 10.2083 3.125C10.2083 4.36764 11.2157 5.375 12.4583 5.375Z" stroke="var(--stroke-0, white)" stroke-width="1.75" stroke-linecap="round" stroke-linejoin="round"/>
<path id="Vector_3" d="M12.4583 15.375C13.7009 15.375 14.7083 14.3676 14.7083 13.125C14.7083 11.8824 13.7009 10.875 12.4583 10.875C11.2157 10.875 10.2083 11.8824 10.2083 13.125C10.2083 14.3676 11.2157 15.375 12.4583 15.375Z" stroke="var(--stroke-0, white)" stroke-width="1.75" stroke-linecap="round" stroke-linejoin="round"/>
<path id="Vector_4" d="M5.12498 7.04167L10.5416 4.125" stroke="var(--stroke-0, white)" stroke-width="1.75" stroke-linecap="round" stroke-linejoin="round"/>
<path id="Vector_5" d="M5.12498 9.20833L10.5416 12.125" stroke="var(--stroke-0, white)" stroke-width="1.75" stroke-linecap="round" stroke-linejoin="round"/>
</g>
</svg>
