<svg xmlns="http://www.w3.org/2000/svg" viewBox="0 0 24 24" fill="#FFFFFF"><path d="M9.5 2C5.36 2 2 4.92 2 8.5c0 2.13 1.18 4 3 5.18l-.75 2.25 2.62-1.31a8.91 8.91 0 0 0 2.63.38c.06 0 .12 0 .19-.01a5.86 5.86 0 0 1-.19-1.49c0-3.31 3.13-6 7-6 .26 0 .51.01.76.04C16.61 4.42 13.39 2 9.5 2zM7 7.5a1 1 0 1 1 0-2 1 1 0 0 1 0 2zm5 0a1 1 0 1 1 0-2 1 1 0 0 1 0 2zm10 6c0-2.76-2.91-5-6.5-5S9 10.74 9 13.5s2.91 5 6.5 5c.71 0 1.4-.09 2.04-.24l2.16 1.08-.63-1.86c1.78-1 2.93-2.6 2.93-4.48zm-8.5-1a.75.75 0 1 1 0-1.5.75.75 0 0 1 0 1.5zm4 0a.75.75 0 1 1 0-1.5.75.75 0 0 1 0 1.5z"/></svg>
